<?xml version="1.0" encoding="iso-8859-1"?>
<!-- Generator: Adobe Illustrator 19.0.0, SVG Export Plug-In . SVG Version: 6.00 Build 0)  -->
<svg version="1.1" id="Capa_1" xmlns="http://www.w3.org/2000/svg" xmlns:xlink="http://www.w3.org/1999/xlink" x="0px" y="0px"
	 viewBox="0 0 384 384" style="enable-background:new 0 0 384 384;" xml:space="preserve">
<g>
	<g>
		<path d="M339.627,42.88c-4.373-12.587-16.32-21.547-30.293-21.547H74.667c-13.973,0-25.92,8.96-30.293,21.547L0,170.667v170.667
			c0,11.733,9.6,21.333,21.333,21.333h21.333c11.84,0,21.333-9.6,21.333-21.333V320h256v21.333c0,11.733,9.6,21.333,21.333,21.333
			h21.333c11.84,0,21.333-9.6,21.333-21.333V170.667L339.627,42.88z M74.667,256c-17.707,0-32-14.293-32-32s14.293-32,32-32
			s32,14.293,32,32S92.373,256,74.667,256z M309.333,256c-17.707,0-32-14.293-32-32s14.293-32,32-32s32,14.293,32,32
			S327.04,256,309.333,256z M42.667,149.333l32-96h234.667l32,96H42.667z"/>
	</g>
</g>
<g>
</g>
<g>
</g>
<g>
</g>
<g>
</g>
<g>
</g>
<g>
</g>
<g>
</g>
<g>
</g>
<g>
</g>
<g>
</g>
<g>
</g>
<g>
</g>
<g>
</g>
<g>
</g>
<g>
</g>
</svg>
